<svg width="18" height="16" viewBox="0 0 18 16" fill="none" xmlns="http://www.w3.org/2000/svg">
<path fill-rule="evenodd" clip-rule="evenodd" d="M8.16664 0.658624C8.22421 0.476088 8.33846 0.316656 8.49281 0.203485C8.64717 0.0903138 8.83358 0.0292969 9.02498 0.0292969C9.21637 0.0292969 9.40279 0.0903138 9.55714 0.203485C9.71149 0.316656 9.82575 0.476088 9.88331 0.658624L11.4333 5.42529H16.4333C16.6315 5.41779 16.8268 5.47541 16.9892 5.58932C17.1516 5.70324 17.2723 5.86719 17.3327 6.05614C17.3932 6.24508 17.3902 6.44862 17.324 6.63567C17.2579 6.82271 17.1324 6.98297 16.9666 7.09196L12.9083 10.0336L14.4583 14.8086C14.5196 14.9905 14.5212 15.1872 14.4627 15.3701C14.4043 15.5529 14.2889 15.7122 14.1335 15.8249C13.9781 15.9375 13.7907 15.9975 13.5988 15.996C13.4068 15.9946 13.2204 15.9319 13.0666 15.817L8.99998 12.842L4.94164 15.792C4.7879 15.9069 4.60145 15.9696 4.40951 15.971C4.21758 15.9725 4.03022 15.9125 3.87479 15.7999C3.71936 15.6872 3.604 15.5279 3.54557 15.3451C3.48713 15.1622 3.48868 14.9655 3.54998 14.7836L5.09998 10.0086L1.04164 7.06696C0.875879 6.95797 0.750352 6.79771 0.684243 6.61067C0.618134 6.42362 0.615077 6.22008 0.675539 6.03114C0.736001 5.84219 0.856658 5.67824 1.01907 5.56432C1.18149 5.45041 1.37673 5.39279 1.57498 5.40029H6.57498L8.16664 0.658624Z" fill="#FBAD39"/>
</svg>
